<svg xmlns="http://www.w3.org/2000/svg" width="900" height="760" viewBox="0 0 900 760">
  <defs>
    <linearGradient id="bg2" x1="0" y1="0" x2="0" y2="1">
      <stop offset="0%" stop-color="#181a24"/>
      <stop offset="100%" stop-color="#0b0d15"/>
    </linearGradient>
    <linearGradient id="gold2" x1="0" y1="0" x2="1" y2="0">
      <stop offset="0%" stop-color="#efd594"/>
      <stop offset="100%" stop-color="#bd7d37"/>
    </linearGradient>
  </defs>
  <rect width="900" height="760" fill="#0b1016"/>
  <rect x="120" y="40" width="660" height="680" rx="28" fill="url(#bg2)" stroke="rgba(212,175,106,0.24)"/>
  <text x="160" y="96" fill="#d7b46a" font-size="22" font-family="Segoe UI, Arial" font-weight="700">Option B. 설정형 패널</text>
  <text x="160" y="126" fill="#c8c8c8" font-size="15" font-family="Segoe UI, Arial">ESC 모달 안에 설정 탭을 별도로 두는 형태</text>

  <g font-family="Segoe UI, Arial">
    <rect x="160" y="156" width="82" height="34" rx="17" fill="#191822" stroke="#2f3240"/>
    <text x="187" y="178" fill="#7f8496" font-size="14">무기</text>
    <rect x="252" y="156" width="94" height="34" rx="17" fill="#191822" stroke="#2f3240"/>
    <text x="278" y="178" fill="#7f8496" font-size="14">장신구</text>
    <rect x="356" y="156" width="78" height="34" rx="17" fill="#191822" stroke="#2f3240"/>
    <text x="384" y="178" fill="#7f8496" font-size="14">스탯</text>
    <rect x="444" y="156" width="82" height="34" rx="17" fill="#2a241b" stroke="#83632c"/>
    <text x="468" y="178" fill="#e3c98a" font-size="14">설정</text>
  </g>

  <g font-family="Segoe UI, Arial">
    <rect x="160" y="220" width="152" height="380" rx="18" fill="#151722" stroke="#272a36"/>
    <text x="186" y="260" fill="#dcdde3" font-size="16">오디오</text>
    <rect x="176" y="274" width="120" height="36" rx="10" fill="#2a241b" stroke="#83632c"/>
    <text x="214" y="297" fill="#e3c98a" font-size="14">볼륨</text>
    <text x="186" y="346" fill="#898d99" font-size="14">그래픽</text>
    <text x="186" y="388" fill="#898d99" font-size="14">화면</text>
    <text x="186" y="430" fill="#898d99" font-size="14">조작</text>

    <text x="340" y="250" fill="#7e8088" font-size="12" letter-spacing="2">AUDIO + EXTRA</text>

    <text x="340" y="294" fill="#ececec" font-size="17">마스터</text>
    <text x="690" y="294" fill="#ececec" font-size="17" text-anchor="end">78</text>
    <rect x="340" y="310" width="350" height="10" rx="5" fill="#2b2a34"/>
    <rect x="340" y="310" width="273" height="10" rx="5" fill="url(#gold2)"/>

    <text x="340" y="352" fill="#ececec" font-size="17">BGM</text>
    <text x="690" y="352" fill="#ececec" font-size="17" text-anchor="end">52</text>
    <rect x="340" y="368" width="350" height="10" rx="5" fill="#2b2a34"/>
    <rect x="340" y="368" width="182" height="10" rx="5" fill="url(#gold2)"/>

    <text x="340" y="410" fill="#ececec" font-size="17">SFX</text>
    <text x="690" y="410" fill="#ececec" font-size="17" text-anchor="end">64</text>
    <rect x="340" y="426" width="350" height="10" rx="5" fill="#2b2a34"/>
    <rect x="340" y="426" width="224" height="10" rx="5" fill="url(#gold2)"/>

    <rect x="340" y="458" width="350" height="50" rx="14" fill="#1b1b24" stroke="#2c2f39"/>
    <text x="364" y="488" fill="#ececec" font-size="15">배경음악</text>
    <rect x="624" y="472" width="50" height="24" rx="12" fill="#27452f" stroke="#427651"/>
    <circle cx="660" cy="484" r="10" fill="#8dd39a"/>

    <rect x="340" y="520" width="350" height="50" rx="14" fill="#1b1b24" stroke="#2c2f39"/>
    <text x="364" y="550" fill="#ececec" font-size="15">효과음</text>
    <rect x="624" y="534" width="50" height="24" rx="12" fill="#27452f" stroke="#427651"/>
    <circle cx="660" cy="546" r="10" fill="#8dd39a"/>

    <rect x="340" y="582" width="168" height="70" rx="14" fill="#171923" stroke="#2b2f3c"/>
    <text x="362" y="610" fill="#8e92a1" font-size="12">화질</text>
    <text x="362" y="636" fill="#ececec" font-size="19" font-weight="700">Medium</text>
    <rect x="522" y="582" width="168" height="70" rx="14" fill="#171923" stroke="#2b2f3c"/>
    <text x="544" y="610" fill="#8e92a1" font-size="12">FPS 표시</text>
    <text x="544" y="636" fill="#ececec" font-size="19" font-weight="700">Off</text>
  </g>

  <g font-family="Segoe UI, Arial">
    <rect x="160" y="650" width="170" height="42" rx="12" fill="#1b1b24" stroke="#343745"/>
    <text x="245" y="676" fill="#bfc3cf" font-size="15" text-anchor="middle">메인메뉴</text>
    <rect x="344" y="650" width="346" height="42" rx="12" fill="#2b2418" stroke="#8f6b33"/>
    <text x="517" y="676" fill="#e5c985" font-size="15" text-anchor="middle">저장 후 재개</text>
  </g>

  <g font-family="Segoe UI, Arial">
    <text x="728" y="266" fill="#e2c889" font-size="15" font-weight="700">핵심</text>
    <text x="728" y="294" fill="#cfd2da" font-size="13">설정 화면 일부를 ESC로 끌어옴</text>
    <text x="728" y="340" fill="#e2c889" font-size="15" font-weight="700">장점</text>
    <text x="728" y="368" fill="#cfd2da" font-size="13">오디오 외 옵션까지 확장 가능</text>
    <text x="728" y="392" fill="#cfd2da" font-size="13">설정 일관성 높음</text>
    <text x="728" y="438" fill="#e2c889" font-size="15" font-weight="700">단점</text>
    <text x="728" y="466" fill="#cfd2da" font-size="13">패널이 무거워짐</text>
    <text x="728" y="490" fill="#cfd2da" font-size="13">무기/장신구 정보 집중도가 떨어짐</text>
  </g>
</svg>
